<svg width="91" height="27" viewBox="0 0 91 27" fill="none" xmlns="http://www.w3.org/2000/svg">
<path d="M79.1611 6.64392H75.4075L81.2606 20.266L80.9786 20.9128C80.2919 22.4492 79.405 23.298 77.6692 23.298C77.225 23.298 76.7004 23.2175 76.2563 23.096V26.0065C76.8217 26.1676 77.3858 26.2085 78.0725 26.2085C81.3015 26.2085 83.2798 23.8233 84.5306 20.7518L90.2216 6.64392H86.468L83.0373 16.6691L79.1624 6.64392H79.1611ZM67.174 16.8315C67.174 15.295 69.1523 14.6482 70.8473 14.5268L72.3405 14.4463V15.2541C72.3405 16.7087 71.0898 18.4075 69.2736 18.4075C68.1441 18.4075 67.1754 17.9231 67.1754 16.8315H67.174ZM63.137 11.7773L66.2857 12.1007C66.407 10.2817 67.5364 9.19012 69.3526 9.19012C71.1688 9.19012 72.2179 10.2817 72.2179 12.0597V12.3422L70.6443 12.4227C67.2939 12.6246 63.8223 13.9591 63.8223 17.0716C63.8223 19.5373 65.7598 20.9114 68.343 20.9114C70.2805 20.9114 71.9754 19.9003 72.4604 18.5262V20.6276H75.6091V12.4623C75.6091 8.58154 72.8651 6.35873 69.3935 6.35873C65.9219 6.35873 63.3387 8.4601 63.137 11.7759V11.7773ZM50.7862 13.6781C50.7862 11.2533 52.3203 9.19149 54.8218 9.19149C57.3233 9.19149 58.818 11.1318 58.818 13.6781C58.818 16.2243 57.2838 18.1646 54.8218 18.1646C52.4007 18.1646 50.7862 16.0223 50.7862 13.6781ZM47.3555 13.6781C47.3555 17.8412 50.4633 20.9141 54.2973 20.9141C56.0726 20.9141 57.9296 20.2674 58.7771 18.6913V20.6317H61.9653V0.418945H58.615V8.58427C57.7675 7.00824 55.8709 6.36146 54.2959 6.36146C50.2998 6.36146 47.3541 9.59539 47.3541 13.6781H47.3555ZM35.1668 13.6371C35.1668 11.2124 36.7009 9.23106 39.0417 9.23106C41.3824 9.23106 42.9574 11.2124 42.9574 13.6371C42.9574 16.0619 41.4233 18.0432 39.0417 18.0432C36.6601 18.0432 35.1668 16.0619 35.1668 13.6371ZM31.7347 13.6371C31.7347 17.9217 35.1245 20.9128 39.0403 20.9128C42.9561 20.9128 46.3868 17.9217 46.3868 13.6371C46.3868 9.3525 42.9969 6.36146 39.0403 6.36146C35.0837 6.36146 31.7347 9.3525 31.7347 13.6371ZM10.8684 9.55445L14.5008 20.6303H18.5773L21.2409 10.2012L23.8651 20.6303H27.8203L32.4214 6.64392H28.9103L25.8434 17.2354L23.3814 6.64392H19.0623L16.6004 17.2354L13.5334 6.64392H8.25111L9.74439 2.92558L6.79735 1.75345L4.90079 6.64528H0.5V9.55582H3.80945L3.04238 11.4552C2.31618 13.2742 1.9524 14.8106 1.9524 15.9827C1.9524 18.9342 4.09148 20.9141 7.1189 20.9141C8.20888 20.9141 9.62176 20.5907 10.5905 20.0654L9.7839 17.4783C9.30022 17.7211 8.24975 18.0841 7.52355 18.0841C6.2728 18.0841 5.26321 17.3159 5.26321 15.7794C5.26321 14.7683 5.50573 13.7586 5.9499 12.5864L7.12026 9.55445H10.8684Z" fill="#151515"/>
</svg>
